<mxfile host="65bd71144e">
    <diagram id="j-0pLlmI1Hn67F3-XwQj" name="Espacio">
        <mxGraphModel dx="746" dy="585" grid="1" gridSize="10" guides="1" tooltips="1" connect="1" arrows="1" fold="1" page="1" pageScale="1" pageWidth="1100" pageHeight="850" math="0" shadow="0">
            <root>
                <mxCell id="0"/>
                <mxCell id="1" parent="0"/>
                <mxCell id="2" value="Área verde" style="rounded=0;whiteSpace=wrap;html=1;fillColor=#d5e8d4;strokeColor=#82b366;" parent="1" vertex="1">
                    <mxGeometry x="120" y="30" width="160" height="80" as="geometry"/>
                </mxCell>
                <mxCell id="3" value="Árbol" style="ellipse;shape=cloud;whiteSpace=wrap;html=1;fillColor=#d5e8d4;strokeColor=#82b366;" parent="1" vertex="1">
                    <mxGeometry x="760" y="120" width="120" height="80" as="geometry"/>
                </mxCell>
                <mxCell id="4" value="" style="verticalLabelPosition=bottom;html=1;verticalAlign=top;align=center;shape=mxgraph.floorplan.plant;fillColor=#f8cecc;strokeColor=#b85450;" parent="1" vertex="1">
                    <mxGeometry x="200.00000000000003" y="160" width="87" height="80" as="geometry"/>
                </mxCell>
                <mxCell id="5" value="" style="shape=mxgraph.signs.nature.sun_3;html=1;pointerEvents=1;fillColor=#fff2cc;strokeColor=#d6b656;verticalLabelPosition=bottom;verticalAlign=top;align=center;sketch=0;" parent="1" vertex="1">
                    <mxGeometry x="240" y="573.5" width="70" height="68" as="geometry"/>
                </mxCell>
                <mxCell id="6" value="" style="ellipse;whiteSpace=wrap;html=1;fillColor=#ffe6cc;strokeColor=#d79b00;" parent="1" vertex="1">
                    <mxGeometry x="600" y="480" width="40" height="40" as="geometry"/>
                </mxCell>
                <mxCell id="8" value="" style="shape=mxgraph.signs.nature.snowflake;html=1;pointerEvents=1;fillColor=#dae8fc;strokeColor=#6c8ebf;verticalLabelPosition=bottom;verticalAlign=top;align=center;sketch=0;" parent="1" vertex="1">
                    <mxGeometry x="360" y="573.5" width="60" height="68" as="geometry"/>
                </mxCell>
                <mxCell id="9" value="" style="shape=mxgraph.signs.nature.moon;html=1;pointerEvents=1;fillColor=#dae8fc;strokeColor=#6c8ebf;verticalLabelPosition=bottom;verticalAlign=top;align=center;sketch=0;" parent="1" vertex="1">
                    <mxGeometry x="150" y="570" width="50" height="63.5" as="geometry"/>
                </mxCell>
                <mxCell id="10" value="" style="shape=mxgraph.signs.people.walking;html=1;pointerEvents=1;fillColor=#000000;strokeColor=none;verticalLabelPosition=bottom;verticalAlign=top;align=center;sketch=0;" parent="1" vertex="1">
                    <mxGeometry x="90" y="409" width="55" height="99" as="geometry"/>
                </mxCell>
                <mxCell id="11" value="" style="shape=mxgraph.signs.safety.biohazard;html=1;pointerEvents=1;fillColor=#000000;strokeColor=none;verticalLabelPosition=bottom;verticalAlign=top;align=center;sketch=0;" parent="1" vertex="1">
                    <mxGeometry x="50" y="570" width="70" height="60" as="geometry"/>
                </mxCell>
                <mxCell id="12" value="" style="shape=mxgraph.signs.safety.keep_dry;html=1;pointerEvents=1;fillColor=#dae8fc;strokeColor=#6c8ebf;verticalLabelPosition=bottom;verticalAlign=top;align=center;sketch=0;" parent="1" vertex="1">
                    <mxGeometry x="470" y="573.5" width="60" height="68" as="geometry"/>
                </mxCell>
                <mxCell id="13" value="" style="shape=mxgraph.signs.transportation.car_3;html=1;pointerEvents=1;fillColor=#000000;strokeColor=none;verticalLabelPosition=bottom;verticalAlign=top;align=center;sketch=0;" parent="1" vertex="1">
                    <mxGeometry x="211" y="470" width="99" height="38" as="geometry"/>
                </mxCell>
                <mxCell id="14" value="Edificio" style="rounded=0;whiteSpace=wrap;html=1;fillColor=#f5f5f5;fontColor=#333333;strokeColor=#666666;" parent="1" vertex="1">
                    <mxGeometry x="380" y="170" width="200" height="200" as="geometry"/>
                </mxCell>
                <mxCell id="15" value="Colmena" style="shape=cylinder3;whiteSpace=wrap;html=1;boundedLbl=1;backgroundOutline=1;size=15;fillColor=#ffe6cc;strokeColor=#d79b00;" parent="1" vertex="1">
                    <mxGeometry x="530" y="10" width="60" height="80" as="geometry"/>
                </mxCell>
                <mxCell id="16" value="" style="dashed=0;outlineConnect=0;html=1;align=center;labelPosition=center;verticalLabelPosition=bottom;verticalAlign=top;shape=mxgraph.webicons.blogger;fillColor=#FDE47C;gradientColor=#F55F21" parent="1" vertex="1">
                    <mxGeometry x="770" y="380" width="42.4" height="40" as="geometry"/>
                </mxCell>
            </root>
        </mxGraphModel>
    </diagram>
    <diagram id="NWrYqbsQPPSErsdcbGdD" name="CicloDeVida">
        <mxGraphModel grid="1" page="1" gridSize="10" guides="1" tooltips="1" connect="1" arrows="1" fold="1" pageScale="1" pageWidth="1100" pageHeight="850" math="0" shadow="0">
            <root>
                <mxCell id="0"/>
                <mxCell id="1" parent="0"/>
                <mxCell id="P1l7o1D4Vmj4FNRDU1JP-3" value="" style="edgeStyle=none;html=1;" parent="1" source="P1l7o1D4Vmj4FNRDU1JP-1" target="P1l7o1D4Vmj4FNRDU1JP-2" edge="1">
                    <mxGeometry relative="1" as="geometry"/>
                </mxCell>
                <mxCell id="P1l7o1D4Vmj4FNRDU1JP-1" value="Abeja observadora está en&lt;br&gt;&amp;nbsp;el panal" style="rounded=1;whiteSpace=wrap;html=1;" parent="1" vertex="1">
                    <mxGeometry x="110" y="115" width="90" height="60" as="geometry"/>
                </mxCell>
                <mxCell id="P1l7o1D4Vmj4FNRDU1JP-5" value="" style="edgeStyle=none;html=1;" parent="1" source="P1l7o1D4Vmj4FNRDU1JP-2" target="P1l7o1D4Vmj4FNRDU1JP-4" edge="1">
                    <mxGeometry relative="1" as="geometry"/>
                </mxCell>
                <mxCell id="P1l7o1D4Vmj4FNRDU1JP-6" value="Si" style="edgeLabel;html=1;align=center;verticalAlign=middle;resizable=0;points=[];" parent="P1l7o1D4Vmj4FNRDU1JP-5" vertex="1" connectable="0">
                    <mxGeometry x="-0.1884" y="3" relative="1" as="geometry">
                        <mxPoint as="offset"/>
                    </mxGeometry>
                </mxCell>
                <mxCell id="P1l7o1D4Vmj4FNRDU1JP-8" value="" style="edgeStyle=none;html=1;exitX=0.5;exitY=1;exitDx=0;exitDy=0;" parent="1" source="P1l7o1D4Vmj4FNRDU1JP-2" target="P1l7o1D4Vmj4FNRDU1JP-7" edge="1">
                    <mxGeometry relative="1" as="geometry">
                        <Array as="points">
                            <mxPoint x="313" y="230"/>
                        </Array>
                    </mxGeometry>
                </mxCell>
                <mxCell id="P1l7o1D4Vmj4FNRDU1JP-9" value="No" style="edgeLabel;html=1;align=center;verticalAlign=middle;resizable=0;points=[];" parent="P1l7o1D4Vmj4FNRDU1JP-8" vertex="1" connectable="0">
                    <mxGeometry x="-0.5111" relative="1" as="geometry">
                        <mxPoint y="5" as="offset"/>
                    </mxGeometry>
                </mxCell>
                <mxCell id="P1l7o1D4Vmj4FNRDU1JP-2" value="Le compartieron información" style="rhombus;whiteSpace=wrap;html=1;rounded=1;" parent="1" vertex="1">
                    <mxGeometry x="240" y="100" width="145" height="90" as="geometry"/>
                </mxCell>
                <mxCell id="U-9B9Hm4MB7x_kwGINh3-2" style="edgeStyle=none;html=1;exitX=1;exitY=0.5;exitDx=0;exitDy=0;" edge="1" parent="1" source="P1l7o1D4Vmj4FNRDU1JP-4" target="U-9B9Hm4MB7x_kwGINh3-1">
                    <mxGeometry relative="1" as="geometry"/>
                </mxCell>
                <mxCell id="P1l7o1D4Vmj4FNRDU1JP-4" value="Salir en dirección cercana a la referida" style="whiteSpace=wrap;html=1;rounded=1;" parent="1" vertex="1">
                    <mxGeometry x="440" y="115" width="120" height="60" as="geometry"/>
                </mxCell>
                <mxCell id="U-9B9Hm4MB7x_kwGINh3-3" style="edgeStyle=none;html=1;exitX=1;exitY=0.5;exitDx=0;exitDy=0;entryX=0;entryY=0.75;entryDx=0;entryDy=0;" edge="1" parent="1" source="P1l7o1D4Vmj4FNRDU1JP-7" target="U-9B9Hm4MB7x_kwGINh3-1">
                    <mxGeometry relative="1" as="geometry"/>
                </mxCell>
                <mxCell id="P1l7o1D4Vmj4FNRDU1JP-7" value="Salir en dirección aleatoria, prefiriendo el oriente" style="whiteSpace=wrap;html=1;rounded=1;" parent="1" vertex="1">
                    <mxGeometry x="440" y="200" width="120" height="60" as="geometry"/>
                </mxCell>
                <mxCell id="U-9B9Hm4MB7x_kwGINh3-7" value="" style="edgeStyle=none;html=1;" edge="1" parent="1" source="U-9B9Hm4MB7x_kwGINh3-1" target="U-9B9Hm4MB7x_kwGINh3-6">
                    <mxGeometry relative="1" as="geometry"/>
                </mxCell>
                <mxCell id="U-9B9Hm4MB7x_kwGINh3-1" value="Ubicar flores cercanas por olfato y acercarse" style="rounded=1;whiteSpace=wrap;html=1;" vertex="1" parent="1">
                    <mxGeometry x="600" y="150" width="120" height="60" as="geometry"/>
                </mxCell>
                <mxCell id="U-9B9Hm4MB7x_kwGINh3-9" value="" style="edgeStyle=none;html=1;" edge="1" parent="1" source="U-9B9Hm4MB7x_kwGINh3-6" target="U-9B9Hm4MB7x_kwGINh3-8">
                    <mxGeometry relative="1" as="geometry"/>
                </mxCell>
                <mxCell id="U-9B9Hm4MB7x_kwGINh3-10" value="Se posa" style="edgeLabel;html=1;align=center;verticalAlign=middle;resizable=0;points=[];" connectable="0" vertex="1" parent="U-9B9Hm4MB7x_kwGINh3-9">
                    <mxGeometry x="-0.1938" y="-2" relative="1" as="geometry">
                        <mxPoint as="offset"/>
                    </mxGeometry>
                </mxCell>
                <mxCell id="U-9B9Hm4MB7x_kwGINh3-14" value="" style="edgeStyle=none;html=1;" edge="1" parent="1" source="U-9B9Hm4MB7x_kwGINh3-6" target="U-9B9Hm4MB7x_kwGINh3-13">
                    <mxGeometry relative="1" as="geometry"/>
                </mxCell>
                <mxCell id="U-9B9Hm4MB7x_kwGINh3-15" value="No le gusta" style="edgeLabel;html=1;align=center;verticalAlign=middle;resizable=0;points=[];" connectable="0" vertex="1" parent="U-9B9Hm4MB7x_kwGINh3-14">
                    <mxGeometry x="-0.2308" y="3" relative="1" as="geometry">
                        <mxPoint as="offset"/>
                    </mxGeometry>
                </mxCell>
                <mxCell id="U-9B9Hm4MB7x_kwGINh3-6" value="Síndrome de polinización" style="rhombus;whiteSpace=wrap;html=1;rounded=1;" vertex="1" parent="1">
                    <mxGeometry x="770" y="140" width="110" height="80" as="geometry"/>
                </mxCell>
                <mxCell id="U-9B9Hm4MB7x_kwGINh3-8" value="" style="whiteSpace=wrap;html=1;rounded=1;" vertex="1" parent="1">
                    <mxGeometry x="960" y="150" width="120" height="60" as="geometry"/>
                </mxCell>
                <mxCell id="U-9B9Hm4MB7x_kwGINh3-16" style="edgeStyle=none;html=1;entryX=0.5;entryY=1;entryDx=0;entryDy=0;" edge="1" parent="1" source="U-9B9Hm4MB7x_kwGINh3-13" target="U-9B9Hm4MB7x_kwGINh3-1">
                    <mxGeometry relative="1" as="geometry">
                        <Array as="points">
                            <mxPoint x="660" y="290"/>
                        </Array>
                    </mxGeometry>
                </mxCell>
                <mxCell id="U-9B9Hm4MB7x_kwGINh3-13" value="Sigue avanzando" style="whiteSpace=wrap;html=1;rounded=1;" vertex="1" parent="1">
                    <mxGeometry x="770" y="260" width="120" height="60" as="geometry"/>
                </mxCell>
            </root>
        </mxGraphModel>
    </diagram>
</mxfile>